HIERARCHY
ROOT Pelvis
{
	OFFSET 0.000000 0.000000 0.000000
	CHANNELS 6 Xposition Yposition Zposition Xrotation Yrotation Zrotation
	JOINT LeftUpLeg_virtual
	{
		OFFSET 0.000000 0.000000 0.000000
		CHANNELS 3 Xrotation Yrotation Zrotation
		JOINT LeftUpLeg
		{
			OFFSET 8.479700 -4.795502 -0.379100
			CHANNELS 3 Xrotation Yrotation Zrotation
			JOINT LeftLeg
			{
				OFFSET 0.024144 -32.555107 0.112900
				CHANNELS 3 Xrotation Yrotation Zrotation
				JOINT LeftFoot
				{
					OFFSET -0.024144 -32.638630 -3.012600
					CHANNELS 3 Xrotation Yrotation Zrotation
					JOINT LeftToeBase
					{
						OFFSET 0.970200 -13.225400 11.864200
						CHANNELS 3 Xrotation Yrotation Zrotation
						End Site
						{
							OFFSET 0 0 0
						}
					}
				}
			}
		}
	}
	JOINT RightUpLeg_virtual
	{
		OFFSET 0.000000 0.000000 0.000000
		CHANNELS 3 Xrotation Yrotation Zrotation
		JOINT RightUpLeg
		{
			OFFSET -8.479700 -4.795502 -0.379100
			CHANNELS 3 Xrotation Yrotation Zrotation
			JOINT RightLeg
			{
				OFFSET -0.023144 -32.555092 0.112900
				CHANNELS 3 Xrotation Yrotation Zrotation
				JOINT RightFoot
				{
					OFFSET 0.023144 -32.638641 -3.012700
					CHANNELS 3 Xrotation Yrotation Zrotation
					JOINT RightToeBase
					{
						OFFSET -0.970200 -13.225400 11.864200
						CHANNELS 3 Xrotation Yrotation Zrotation
						End Site
						{
							OFFSET 0 0 0
						}
					}
				}
			}
		}
	}
	JOINT Hips_virtual
	{
		OFFSET 0.000000 0.000000 0.000000
		CHANNELS 3 Xrotation Yrotation Zrotation
		JOINT Hips
		{
			OFFSET -0.000000 -0.000000 -0.000000
			CHANNELS 3 Xrotation Yrotation Zrotation
			JOINT Spine
			{
				OFFSET 0.000000 7.722000 1.166200
				CHANNELS 3 Xrotation Yrotation Zrotation
				JOINT Spine1
				{
					OFFSET 0.000000 12.024101 0.248800
					CHANNELS 3 Xrotation Yrotation Zrotation
					JOINT Spine2
					{
						OFFSET 0.000000 11.502998 -0.491200
						CHANNELS 3 Xrotation Yrotation Zrotation
						JOINT Neck_virtual
						{
							OFFSET 0.000000 0.000000 0.000000
							CHANNELS 3 Xrotation Yrotation Zrotation
							JOINT Neck
							{
								OFFSET 0.000000 18.430702 -3.123100
								CHANNELS 3 Xrotation Yrotation Zrotation
								JOINT Head
								{
									OFFSET 0.000000 9.051102 1.034000
									CHANNELS 3 Xrotation Yrotation Zrotation
									End Site
									{
										OFFSET 0 0 0
									}
								}
							}
						}
						JOINT LeftShoulder_virtual
						{
							OFFSET 0.000000 0.000000 0.000000
							CHANNELS 3 Xrotation Yrotation Zrotation
							JOINT LeftShoulder
							{
								OFFSET 6.197800 13.665199 -4.064700
								CHANNELS 3 Xrotation Yrotation Zrotation
								JOINT LeftArm
								{
									OFFSET 7.778100 -0.187103 -1.709300
									CHANNELS 3 Xrotation Yrotation Zrotation
									JOINT LeftForeArm
									{
										OFFSET 22.049376 0.000000 0.000000
										CHANNELS 3 Xrotation Yrotation Zrotation
										JOINT LeftHand
										{
											OFFSET 23.009392 0.000000 0.000000
											CHANNELS 3 Xrotation Yrotation Zrotation
											End Site
											{
												OFFSET 0 0 0
											}
										}
									}
								}
							}
						}
						JOINT RightShoulder_virtual
						{
							OFFSET 0.000000 0.000000 0.000000
							CHANNELS 3 Xrotation Yrotation Zrotation
							JOINT RightShoulder
							{
								OFFSET -6.197800 13.665199 -4.064700
								CHANNELS 3 Xrotation Yrotation Zrotation
								JOINT RightArm
								{
									OFFSET -7.778100 -0.187103 -1.709300
									CHANNELS 3 Xrotation Yrotation Zrotation
									JOINT RightForeArm
									{
										OFFSET -22.049376 0.000000 0.000000
										CHANNELS 3 Xrotation Yrotation Zrotation
										JOINT RightHand
										{
											OFFSET -23.009392 0.000000 0.000000
											CHANNELS 3 Xrotation Yrotation Zrotation
											End Site
											{
												OFFSET 0 0 0
											}
										}
									}
								}
							}
						}
					}
				}
			}
		}
	}
}
MOTION
Frames: 4
Frame Time: 0.03333333
-0.071255 87.869606 -3.773842 0.000000 0.000000 0.000000 -89.650891 0.343354 0.885344 -6.182388 17.032714 19.246672 4.685417 7.698352 0.312747 29.985302 29.322303 -30.698104 0.000000 0.000000 0.000000 -89.650891 0.343354 0.885344 -5.265011 -16.854004 -12.909875 2.730935 -7.581743 -7.549113 39.882718 -29.331568 30.403563 0.000000 0.000000 0.000000 -89.650891 0.343354 0.885344 0.000000 0.000000 0.000000 1.062485 -1.169141 0.781286 -0.317535 -2.434543 0.230484 0.000000 0.000000 0.000000 -0.303405 -2.418348 0.331943 -10.007533 0.102137 -1.808070 0.000000 0.000000 0.000000 -0.303405 -2.418348 0.331943 0.422237 -0.103001 -4.005444 35.263672 -28.378536 -54.538398 0.000206 -80.454185 0.000180 0.000000 0.000000 0.000000 -0.303405 -2.418348 0.331943 0.646686 1.792568 13.881980 39.542936 30.913347 33.651666 -179.999691 78.652210 179.999704 0.000000 0.000000 0.000000 
-0.083719 87.868576 -3.751968 0.000000 0.000000 0.000000 -89.671696 0.436081 1.023812 -6.198085 16.848953 19.091941 4.860888 7.569852 0.360230 29.960457 29.332743 -30.656450 0.000000 0.000000 0.000000 -89.671696 0.436081 1.023812 -5.269359 -16.993635 -13.177971 2.810436 -7.265055 -7.285346 40.257845 -29.346072 30.393188 0.000000 0.000000 0.000000 -89.671696 0.436081 1.023812 0.000000 0.000000 0.000000 1.040804 -1.128928 0.775588 -0.418968 -2.373052 0.195801 0.000000 0.000000 0.000000 -0.397370 -2.369106 0.309556 -9.992516 0.068523 -1.711926 0.000000 0.000000 0.000000 -0.397370 -2.369106 0.309556 0.461634 -0.727168 -4.005713 35.651685 -28.307477 -54.248296 0.000024 -80.590065 0.000031 0.000000 0.000000 0.000000 -0.397370 -2.369106 0.309556 0.607869 1.777500 13.847698 37.902595 30.020054 36.590082 -179.999868 78.752860 179.999855 0.000000 0.000000 0.000000 
-0.068579 87.865654 -3.746277 0.000000 0.000000 0.000000 -89.707657 0.534730 1.160774 -6.217899 16.647213 18.925078 5.112316 7.434404 0.406745 29.942859 29.330898 -30.595450 0.000000 0.000000 0.000000 -89.707657 0.534730 1.160774 -5.215391 -17.147185 -13.467320 2.654586 -7.011550 -7.021371 41.109406 -29.359319 30.389369 0.000000 0.000000 0.000000 -89.707657 0.534730 1.160774 0.000000 0.000000 0.000000 1.019467 -1.089531 0.768251 -0.521705 -2.314062 0.161337 0.000000 0.000000 0.000000 -0.492039 -2.319871 0.287192 -9.946372 0.033122 -1.614218 0.000000 0.000000 0.000000 -0.492039 -2.319871 0.287192 0.507659 -1.375824 -4.005944 35.944506 -28.114963 -54.137090 0.000027 -80.729264 0.000037 0.000000 0.000000 0.000000 -0.492039 -2.319871 0.287192 0.569202 1.762516 13.812977 35.720708 29.082105 39.718575 179.999841 79.219860 -179.999855 0.000000 0.000000 0.000000 
-0.048074 87.861496 -3.740555 0.000000 0.000000 0.000000 -89.747361 0.635015 1.298113 -6.242779 16.439231 18.755331 5.386774 7.293361 0.452484 29.924234 29.329590 -30.485795 0.000000 0.000000 0.000000 -89.747361 0.635015 1.298113 -5.157479 -17.301950 -13.761573 2.440967 -6.793322 -6.761379 42.050418 -29.370787 30.386221 0.000000 0.000000 0.000000 -89.747361 0.635015 1.298113 0.000000 0.000000 0.000000 0.998107 -1.050181 0.757333 -0.624382 -2.255072 0.126877 0.000000 0.000000 0.000000 -0.586715 -2.270639 0.264828 -9.868835 -0.003009 -1.517640 0.000000 0.000000 0.000000 -0.586715 -2.270639 0.264828 0.565013 -2.038754 -3.968433 36.227819 -27.974495 -54.031233 0.000252 -80.847877 0.000258 0.000000 0.000000 0.000000 -0.586715 -2.270639 0.264828 0.532908 1.739980 13.779531 33.134597 28.142893 42.894496 -179.999472 80.011541 179.999472 0.000000 0.000000 0.000000 
